<svg width="180" height="180" viewBox="0 0 180 180" xmlns="http://www.w3.org/2000/svg">
  <!-- Background circle with padding -->
  <rect width="180" height="180" fill="white" />
  <circle cx="90" cy="90" r="75" fill="#1A365D"/>
  
  <!-- Letter B -->
  <path d="M60 45h35c8 0 15 2 20 6 5 4 7.5 9.5 7.5 16.5 0 4-1 7.5-3 10.5-2 3-4.5 5.5-7.5 7 4 1.5 7 4 9.5 7.5 2.5 3.5 3.5 7.5 3.5 12.5 0 7.5-2.5 13.5-8 18-5.5 4.5-12.5 7-22 7h-35V45z" fill="#2CB1BC"/>
  
  <!-- Inner details of B -->
  <path d="M75 65v16h16c3 0 5-0.5 6.5-2 1.5-1.5 2-3.5 2-5.5 0-2-0.5-4-2-5.5-1.5-1.5-3.5-2-6.5-2h-16z" fill="#1A365D"/>
  <path d="M75 95v16h18c3 0 5-1 6.5-2.5 1.5-1.5 2.5-3.5 2.5-6 0-2.5-1-4.5-2.5-5.5-1.5-1-4-1.5-6.5-1.5h-18z" fill="#1A365D"/>
  
  <!-- Small orange accent -->
  <circle cx="130" cy="45" r="15" fill="#F59E0B"/>
</svg>