<svg width="32" height="32" viewBox="0 0 32 32" xmlns="http://www.w3.org/2000/svg">
  <!-- Background circle -->
  <circle cx="16" cy="16" r="16" fill="#1A365D"/>
  
  <!-- Letter B -->
  <path d="M11 8h6c1.6 0 3 0.4 4 1.2 1 0.8 1.5 1.9 1.5 3.3 0 0.8-0.2 1.5-0.6 2.1-0.4 0.6-0.9 1.1-1.5 1.4 0.8 0.3 1.4 0.8 1.9 1.5 0.5 0.7 0.7 1.5 0.7 2.5 0 1.5-0.5 2.7-1.6 3.6-1.1 0.9-2.5 1.4-4.4 1.4h-6V8z" fill="#2CB1BC"/>
  
  <!-- Inner details of B -->
  <path d="M13 12v3h3c0.6 0 1-0.1 1.3-0.4 0.3-0.3 0.4-0.7 0.4-1.1 0-0.4-0.1-0.8-0.4-1.1C17 12.1 16.6 12 16 12h-3z" fill="#1A365D"/>
  <path d="M13 18v3h3.5c0.6 0 1-0.2 1.3-0.5 0.3-0.3 0.5-0.7 0.5-1.2 0-0.5-0.2-0.9-0.5-1.1-0.3-0.2-0.8-0.3-1.3-0.3H13z" fill="#1A365D"/>
  
  <!-- Small orange accent -->
  <circle cx="24" cy="8" r="3" fill="#F59E0B"/>
</svg>